# xmcd CD database file
#
# Track frame offsets:
#	150
#	16945
#	40177
#	57650
#	71735
#	90007
#	106522
#	124765
#	144980
#	165615
#
# Disc length: 2552 seconds
#
# Revision: 3
# Processed by: cddbd v1.5PL3 Copyright (c) Steve Scherf et al.
# Submitted via: CDex 1.51
#
DISCID=7709f60a
DTITLE=John Hammond - Got Love If You Want It
DYEAR=1992
DGENRE=Blues
TTITLE0=I've Got Love If You Want It
TTITLE1=Driftin' Blues
TTITLE2=Dreamy Eyed Girl
TTITLE3=Mattie Mae
TTITLE4=You Don't Love Me
TTITLE5=Nadine
TTITLE6=No One Can Forgive Me But My Baby
TTITLE7=You're So Fine
TTITLE8=No Place To Go
TTITLE9=Preachin' Blues
EXTD=YEAR: 1992
EXTT0=
EXTT1=
EXTT2=
EXTT3=
EXTT4=
EXTT5=
EXTT6=
EXTT7=
EXTT8=
EXTT9=
PLAYORDER=
